<svg xmlns="http://www.w3.org/2000/svg" viewBox="0 0 4000 4000"><defs><style>.cls-1{fill:url(#radial-gradient)}.cls-2{fill:#0e2947}.cls-3,.cls-6,.cls-7,.cls-8{fill:none;stroke-miterlimit:10}.cls-3{stroke:#0c263d;stroke-width:35px}.cls-4{fill:#3b7a9d}.cls-5{fill:#0c263d}.cls-6,.cls-8{stroke:#5fa6c2}.cls-6{stroke-width:85px}.cls-7{stroke:#3b7a9d;stroke-width:60px}.cls-8{stroke-width:90px}.cls-9{fill:#d0eaf4}</style><radialGradient id="radial-gradient" cx="2000" cy="2000" r="1251" gradientUnits="userSpaceOnUse"><stop offset=".32" stop-color="#0b2038"/><stop offset=".67" stop-color="#13273f" stop-opacity=".97"/><stop offset=".79" stop-color="#314257" stop-opacity=".85"/><stop offset=".88" stop-color="#647281" stop-opacity=".63"/><stop offset=".95" stop-color="#adb4bc" stop-opacity=".34"/><stop offset="1" stop-color="#fff" stop-opacity="0"/></radialGradient></defs><circle cx="2000" cy="2000" r="1251" class="cls-1"/><circle cx="2000" cy="2000" r="1114" class="cls-2"/><line x1="1999.5" x2="1999.5" y1="2547" y2="2953" class="cls-3"/><line x1="2141.09" x2="2246.17" y1="2528.49" y2="2920.66" class="cls-3"/><line x1="2273.07" x2="2476.07" y1="2473.97" y2="2825.57" class="cls-3"/><line x1="2386.43" x2="2673.52" y1="2387.14" y2="2674.23" class="cls-3"/><line x1="2473.47" x2="2825.07" y1="2273.93" y2="2476.93" class="cls-3"/><line x1="2528.23" x2="2920.4" y1="2142.06" y2="2247.14" class="cls-3"/><line x1="2547" x2="2953" y1="2000.5" y2="2000.5" class="cls-3"/><line x1="2528.49" x2="2920.66" y1="1858.91" y2="1753.83" class="cls-3"/><line x1="2473.97" x2="2825.57" y1="1726.93" y2="1523.93" class="cls-3"/><line x1="2387.14" x2="2674.23" y1="1613.57" y2="1326.48" class="cls-3"/><line x1="2273.93" x2="2476.93" y1="1526.53" y2="1174.93" class="cls-3"/><line x1="2142.06" x2="2247.14" y1="1471.77" y2="1079.6" class="cls-3"/><line x1="2000.5" x2="2000.5" y1="1453" y2="1047" class="cls-3"/><line x1="1858.91" x2="1753.83" y1="1471.51" y2="1079.34" class="cls-3"/><line x1="1726.93" x2="1523.93" y1="1526.03" y2="1174.43" class="cls-3"/><line x1="1613.57" x2="1326.48" y1="1612.86" y2="1325.77" class="cls-3"/><line x1="1526.53" x2="1174.93" y1="1726.07" y2="1523.07" class="cls-3"/><line x1="1471.77" x2="1079.6" y1="1857.94" y2="1752.86" class="cls-3"/><line x1="1453" x2="1047" y1="1999.5" y2="1999.5" class="cls-3"/><line x1="1471.51" x2="1079.34" y1="2141.09" y2="2246.17" class="cls-3"/><line x1="1526.03" x2="1174.43" y1="2273.07" y2="2476.07" class="cls-3"/><line x1="1612.86" x2="1325.77" y1="2386.43" y2="2673.52" class="cls-3"/><line x1="1726.07" x2="1523.07" y1="2473.47" y2="2825.07" class="cls-3"/><line x1="1857.94" x2="1752.86" y1="2528.23" y2="2920.4" class="cls-3"/><path d="M2000,971a1036.58,1036.58,0,0,1,207.47,20.91,1022.68,1022.68,0,0,1,367.79,154.78,1032.34,1032.34,0,0,1,372.91,452.8,1023.27,1023.27,0,0,1,59.92,193,1039.72,1039.72,0,0,1,0,414.94,1022.68,1022.68,0,0,1-154.78,367.79,1032.34,1032.34,0,0,1-452.8,372.91,1023,1023,0,0,1-193,59.92,1039.72,1039.72,0,0,1-414.94,0,1022.68,1022.68,0,0,1-367.79-154.78,1032.34,1032.34,0,0,1-372.91-452.8,1023,1023,0,0,1-59.92-193,1039.72,1039.72,0,0,1,0-414.94,1022.68,1022.68,0,0,1,154.78-367.79,1032.34,1032.34,0,0,1,452.8-372.91,1023.27,1023.27,0,0,1,193-59.92A1036.58,1036.58,0,0,1,2000,971m0-85c-615.24,0-1114,498.76-1114,1114s498.76,1114,1114,1114,1114-498.75,1114-1114S2615.25,886,2000,886Z" class="cls-4"/><path d="M2000,1053a954.18,954.18,0,0,1,190.94,19.24,941.66,941.66,0,0,1,338.48,142.44,949.88,949.88,0,0,1,343.19,416.73,941.67,941.67,0,0,1,55.15,177.65,957.08,957.08,0,0,1,0,381.88,941.66,941.66,0,0,1-142.44,338.48,949.88,949.88,0,0,1-416.73,343.19,941.67,941.67,0,0,1-177.65,55.15,957.08,957.08,0,0,1-381.88,0,941.66,941.66,0,0,1-338.48-142.44,949.88,949.88,0,0,1-343.19-416.73,941.67,941.67,0,0,1-55.15-177.65,957.08,957.08,0,0,1,0-381.88,941.66,941.66,0,0,1,142.44-338.48,949.88,949.88,0,0,1,416.73-343.19,941.67,941.67,0,0,1,177.65-55.15A954.18,954.18,0,0,1,2000,1053m0-85c-570,0-1032,462-1032,1032s462,1032,1032,1032,1032-462,1032-1032S2570,968,2000,968Z" class="cls-5"/><path d="M2000,1538a460.22,460.22,0,1,1-179.81,36.27A459,459,0,0,1,2000,1538m0-85c-302.1,0-547,244.9-547,547s244.9,547,547,547,547-244.9,547-547-244.9-547-547-547Z" class="cls-5"/><path d="M2000,1456a541.18,541.18,0,0,1,304.1,92.86,547.12,547.12,0,0,1,147,147,543.21,543.21,0,0,1,0,608.2,547.12,547.12,0,0,1-147,147,543.21,543.21,0,0,1-608.2,0,547.12,547.12,0,0,1-147-147,543.21,543.21,0,0,1,0-608.2,547.12,547.12,0,0,1,147-147A541.18,541.18,0,0,1,2000,1456m0-85c-347.39,0-629,281.61-629,629s281.61,629,629,629,629-281.61,629-629-281.61-629-629-629Z" class="cls-4"/><path d="M1583.3,3033.13C1012.72,2803,736.73,2153.89,966.87,1583.3" class="cls-6"/><path d="M2416.7,966.87c570.58,230.13,846.57,879.24,616.43,1449.83" class="cls-6"/><path d="M2282.74,2797.12C1842.5,2953.27,1359,2723,1202.88,2282.74" class="cls-7"/><path d="M1717.26,1202.88C2157.5,1046.73,2641,1277,2797.12,1717.26" class="cls-7"/><path d="M1435.1,1716.6c156.52-312,536.31-438,848.3-281.5" class="cls-8"/><path d="M2564.9,2283.4c-156.52,312-536.31,438-848.3,281.5" class="cls-8"/><path d="M1315,1870.9v178.19q0,44.44-19.2,64.22t-61.2,19.77q-24.21,0-37.64-4v-37.45q21.18,1.51,29.89,1.51,23.27,0,31.78-8.7t8.51-35.37V1870.9Z" class="cls-9"/><path d="M1410.94,2079.54v49.56h-46.72v-49.56Z" class="cls-9"/><path d="M1665.18,2129.1h-49.75l-20.62-61.47H1495.5l-20.24,61.47h-39.72l85.69-258.2h57.31Zm-82.85-98.74-37.65-115.2L1507,2030.36Z" class="cls-9"/><path d="M1746.33,2079.54v49.56h-46.72v-49.56Z" class="cls-9"/><path d="M1999.24,2129.1h-49.18L1910,2023h-65.45V2129.1H1798V1870.9h112q46.72,0,68.66,21.09t22,54.57q0,49.76-46.54,68.48Zm-154.73-143.38h57.88q25.15,0,37.46-10.6t12.29-29.13q0-17-12.1-27.52t-33.87-10.5h-61.66Z" class="cls-9"/><path d="M2088.53,2079.54v49.56h-46.72v-49.56Z" class="cls-9"/><path d="M2239.48,2129.1h-47.29l-79.64-258.2h49.18l59.21,197.86,60.54-197.86h38.77Z" class="cls-9"/><path d="M2373.41,2079.54v49.56h-46.72v-49.56Z" class="cls-9"/><path d="M2471.59,2129.1h-46.54V1870.9h46.54Z" class="cls-9"/><path d="M2570,2079.54v49.56h-46.72v-49.56Z" class="cls-9"/><path d="M2594.54,2066.87l45.21-9.65q8.13,38.4,62.43,38.4,24.77,0,38.11-9.83t13.34-24.41a34.4,34.4,0,0,0-6.05-19.58q-6.06-9-25.92-14.09l-49.37-12.86q-25.35-6.61-37.46-15t-19.39-23.74a75.31,75.31,0,0,1-7.28-32.72q0-34.62,25.73-55.52t65.83-20.91q33.29,0,59.49,14.57t33.39,41.24l-44.27,11q-10.22-29.33-47.67-29.32-21.75,0-33.2,9.08T2656,1936.54q0,22.13,35.94,31l43.89,11q39.9,10,53.53,29.6a74.07,74.07,0,0,1,13.62,43.23q0,38-28.66,59.87t-74.25,21.85q-38.4,0-67.24-16.08T2594.54,2066.87Z" class="cls-9"/></svg>