<svg xmlns="http://www.w3.org/2000/svg" viewBox="0 0 4000 4000">
    <defs>
        <style>
            .cls-1{
                fill:url(#radial-gradient);
            }
            .cls-2{
                fill:#0e2947;
            }
            .cls-3,.cls-6,.cls-7,.cls-8{
                fill:none;stroke-miterlimit:10;
            }
            .cls-3{
                stroke:#0c263d;stroke-width:35px;
            }
            .cls-4{
                fill:#3b7a9d;
            }
            .cls-5{
                fill:#0c263d;
            }
            .cls-6,.cls-8{
                stroke:#5fa6c2;
            }
            .cls-6{
                stroke-width:85px;
            }
            .cls-7{
                stroke:#3b7a9d;
                stroke-width:60px;
            }
            .cls-8{
                stroke-width:90px;
            }
            .cls-9{
                fill:#d0eaf4;
            }
        </style>
        <radialGradient id="radial-gradient" cx="2000" cy="2000" r="1251" gradientUnits="userSpaceOnUse"><stop offset="0.32" stop-color="#0b2038"/>
            <stop offset="0.67" stop-color="#13273f" stop-opacity="0.97"/>
            <stop offset="0.79" stop-color="#314257" stop-opacity="0.85"/>
            <stop offset="0.88" stop-color="#647281" stop-opacity="0.63"/>
            <stop offset="0.95" stop-color="#adb4bc" stop-opacity="0.34"/>
            <stop offset="1" stop-color="#fff" stop-opacity="0"/>
        </radialGradient></defs>
    <circle class="cls-1" cx="2000" cy="2000" r="1251"/>
    <circle class="cls-2" cx="2000" cy="2000" r="1114"/>
    <line class="cls-3" x1="1999.5" y1="2547" x2="1999.5" y2="2953"/>
    <line class="cls-3" x1="2141.09" y1="2528.49" x2="2246.17" y2="2920.66"/>
    <line class="cls-3" x1="2273.07" y1="2473.97" x2="2476.07" y2="2825.57"/>
    <line class="cls-3" x1="2386.43" y1="2387.14" x2="2673.52" y2="2674.23"/>
    <line class="cls-3" x1="2473.47" y1="2273.93" x2="2825.07" y2="2476.93"/>
    <line class="cls-3" x1="2528.23" y1="2142.06" x2="2920.4" y2="2247.14"/>
    <line class="cls-3" x1="2547" y1="2000.5" x2="2953" y2="2000.5"/>
    <line class="cls-3" x1="2528.49" y1="1858.91" x2="2920.66" y2="1753.83"/>
    <line class="cls-3" x1="2473.97" y1="1726.93" x2="2825.57" y2="1523.93"/>
    <line class="cls-3" x1="2387.14" y1="1613.57" x2="2674.23" y2="1326.48"/>
    <line class="cls-3" x1="2273.93" y1="1526.53" x2="2476.93" y2="1174.93"/>
    <line class="cls-3" x1="2142.06" y1="1471.77" x2="2247.14" y2="1079.6"/>
    <line class="cls-3" x1="2000.5" y1="1453" x2="2000.5" y2="1047"/>
    <line class="cls-3" x1="1858.91" y1="1471.51" x2="1753.83" y2="1079.34"/>
    <line class="cls-3" x1="1726.93" y1="1526.03" x2="1523.93" y2="1174.43"/>
    <line class="cls-3" x1="1613.57" y1="1612.86" x2="1326.48" y2="1325.77"/>
    <line class="cls-3" x1="1526.53" y1="1726.07" x2="1174.93" y2="1523.07"/>
    <line class="cls-3" x1="1471.77" y1="1857.94" x2="1079.6" y2="1752.86"/>
    <line class="cls-3" x1="1453" y1="1999.5" x2="1047" y2="1999.5"/>
    <line class="cls-3" x1="1471.51" y1="2141.09" x2="1079.34" y2="2246.17"/>
    <line class="cls-3" x1="1526.03" y1="2273.07" x2="1174.43" y2="2476.07"/>
    <line class="cls-3" x1="1612.86" y1="2386.43" x2="1325.77" y2="2673.52"/>
    <line class="cls-3" x1="1726.07" y1="2473.47" x2="1523.07" y2="2825.07"/>
    <line class="cls-3" x1="1857.94" y1="2528.23" x2="1752.86" y2="2920.4"/>
    <path class="cls-4" d="M2000,971a1036.58,1036.58,0,0,1,207.47,20.91,1022.68,1022.68,0,0,1,367.79,154.78,1032.34,1032.34,0,0,1,372.91,452.8,1023.27,1023.27,0,0,1,59.92,193,1039.72,1039.72,0,0,1,0,414.94,1022.68,1022.68,0,0,1-154.78,367.79,1032.34,1032.34,0,0,1-452.8,372.91,1023,1023,0,0,1-193,59.92,1039.72,1039.72,0,0,1-414.94,0,1022.68,1022.68,0,0,1-367.79-154.78,1032.34,1032.34,0,0,1-372.91-452.8,1023,1023,0,0,1-59.92-193,1039.72,1039.72,0,0,1,0-414.94,1022.68,1022.68,0,0,1,154.78-367.79,1032.34,1032.34,0,0,1,452.8-372.91,1023.27,1023.27,0,0,1,193-59.92A1036.58,1036.58,0,0,1,2000,971m0-85c-615.24,0-1114,498.76-1114,1114s498.76,1114,1114,1114,1114-498.75,1114-1114S2615.25,886,2000,886Z"/>
    <path class="cls-5" d="M2000,1053a954.18,954.18,0,0,1,190.94,19.24,941.66,941.66,0,0,1,338.48,142.44,949.88,949.88,0,0,1,343.19,416.73,941.67,941.67,0,0,1,55.15,177.65,957.08,957.08,0,0,1,0,381.88,941.66,941.66,0,0,1-142.44,338.48,949.88,949.88,0,0,1-416.73,343.19,941.67,941.67,0,0,1-177.65,55.15,957.08,957.08,0,0,1-381.88,0,941.66,941.66,0,0,1-338.48-142.44,949.88,949.88,0,0,1-343.19-416.73,941.67,941.67,0,0,1-55.15-177.65,957.08,957.08,0,0,1,0-381.88,941.66,941.66,0,0,1,142.44-338.48,949.88,949.88,0,0,1,416.73-343.19,941.67,941.67,0,0,1,177.65-55.15A954.18,954.18,0,0,1,2000,1053m0-85c-570,0-1032,462-1032,1032s462,1032,1032,1032,1032-462,1032-1032S2570,968,2000,968Z"/>
    <path class="cls-5" d="M2000,1538a460.22,460.22,0,1,1-179.81,36.27A459,459,0,0,1,2000,1538m0-85c-302.1,0-547,244.9-547,547s244.9,547,547,547,547-244.9,547-547-244.9-547-547-547Z"/>
    <path class="cls-4" d="M2000,1456a541.18,541.18,0,0,1,304.1,92.86,547.12,547.12,0,0,1,147,147,543.21,543.21,0,0,1,0,608.2,547.12,547.12,0,0,1-147,147,543.21,543.21,0,0,1-608.2,0,547.12,547.12,0,0,1-147-147,543.21,543.21,0,0,1,0-608.2,547.12,547.12,0,0,1,147-147A541.18,541.18,0,0,1,2000,1456m0-85c-347.39,0-629,281.61-629,629s281.61,629,629,629,629-281.61,629-629-281.61-629-629-629Z"/>
    <path class="cls-6" d="M1583.3,3033.13C1012.72,2803,736.73,2153.89,966.87,1583.3"/>
    <path class="cls-6" d="M2416.7,966.87c570.58,230.13,846.57,879.24,616.43,1449.83"/>
    <path class="cls-7" d="M2282.74,2797.12C1842.5,2953.27,1359,2723,1202.88,2282.74"/>
    <path class="cls-7" d="M1717.26,1202.88C2157.5,1046.73,2641,1277,2797.12,1717.26"/>
    <path class="cls-8" d="M1435.1,1716.6c156.52-312,536.31-438,848.3-281.5"/>
    <path class="cls-8" d="M2564.9,2283.4c-156.52,312-536.31,438-848.3,281.5"/>
    <path class="cls-9" d="M1315,1870.9v178.19q0,44.44-19.2,64.22t-61.2,19.77q-24.21,0-37.64-4v-37.45q21.18,1.51,29.89,1.51,23.27,0,31.78-8.7t8.51-35.37V1870.9Z"/>
    <path class="cls-9" d="M1410.94,2079.54v49.56h-46.72v-49.56Z"/>
    <path class="cls-9" d="M1665.18,2129.1h-49.75l-20.62-61.47H1495.5l-20.24,61.47h-39.72l85.69-258.2h57.31Zm-82.85-98.74-37.65-115.2L1507,2030.36Z"/>
    <path class="cls-9" d="M1746.33,2079.54v49.56h-46.72v-49.56Z"/>
    <path class="cls-9" d="M1999.24,2129.1h-49.18L1910,2023h-65.45V2129.1H1798V1870.9h112q46.72,0,68.66,21.09t22,54.57q0,49.76-46.54,68.48Zm-154.73-143.38h57.88q25.15,0,37.46-10.6t12.29-29.13q0-17-12.1-27.52t-33.87-10.5h-61.66Z"/>
    <path class="cls-9" d="M2088.53,2079.54v49.56h-46.72v-49.56Z"/>
    <path class="cls-9" d="M2239.48,2129.1h-47.29l-79.64-258.2h49.18l59.21,197.86,60.54-197.86h38.77Z"/>
    <path class="cls-9" d="M2373.41,2079.54v49.56h-46.72v-49.56Z"/>
    <path class="cls-9" d="M2471.59,2129.1h-46.54V1870.9h46.54Z"/>
    <path class="cls-9" d="M2570,2079.54v49.56h-46.72v-49.56Z"/>
    <path class="cls-9" d="M2594.54,2066.87l45.21-9.65q8.13,38.4,62.43,38.4,24.77,0,38.11-9.83t13.34-24.41a34.4,34.4,0,0,0-6.05-19.58q-6.06-9-25.92-14.09l-49.37-12.86q-25.35-6.61-37.46-15t-19.39-23.74a75.31,75.31,0,0,1-7.28-32.72q0-34.62,25.73-55.52t65.83-20.91q33.29,0,59.49,14.57t33.39,41.24l-44.27,11q-10.22-29.33-47.67-29.32-21.75,0-33.2,9.08T2656,1936.54q0,22.13,35.94,31l43.89,11q39.9,10,53.53,29.6a74.07,74.07,0,0,1,13.62,43.23q0,38-28.66,59.87t-74.25,21.85q-38.4,0-67.24-16.08T2594.54,2066.87Z"/>
    <!-- Logo by: https://vk.com/id285575651 -->
    <!--
    <path d="M3509,3967.26a27.89,27.89,0,0,0-14.05-31.62,1.54,1.54,0,0,0-1.82.23c-13.76,16.72-6.33,44.57,13.94,52.19a1.51,1.51,0,0,0,1.85-1c20.19-61.65,19.18-128.21,12.88-192.09-1.52-15.46-4.18-31.14-13.21-44.16-.77-1.1-2.94-.85-2.8.76q2.54,28.74,7,57.25,2.25,14.39,5,28.69c1.31,6.82,2.33,14.24,6.26,20.16,7.72,11.64,20.48,5.51,27.12-3.79,9.5-13.29,11.43-31.65,13.21-47.43a257.26,257.26,0,0,0-.94-64c-.2-1.46-2.64-1.41-2.89,0a696.23,696.23,0,0,0-10.75,107.9c-.53,25.64-3.48,63.83,23.47,78.06,10.74,5.67,24.23,6.19,33.54-2.41,1.42-1.31-.71-3.43-2.12-2.12-11.66,10.78-30.4,5.11-39.83-5.89-12-14-12.17-34.62-12.21-52.06a692.41,692.41,0,0,1,10.79-122.69h-2.89a253.79,253.79,0,0,1,2,49.89c-.91,15.3-2.62,31.34-7.45,46-2.27,6.87-5.78,14-11.49,18.7-7.44,6.09-15.08,3.08-18.74-5-2.82-6.2-3.64-13.33-4.88-20q-2.24-11.92-4.13-23.92-4.5-28.57-7-57.41l-2.8.76c8.58,12.34,11.25,27.14,12.73,41.82,1.53,15.13,2.57,30.33,3.26,45.52,1.43,31.57.94,63.39-3.75,94.69a319.81,319.81,0,0,1-12.2,51.91l1.84-1c-18-6.79-24.88-32.28-12.62-47.18l-1.82.24a24.88,24.88,0,0,1,12.68,28.24,1.5,1.5,0,0,0,2.89.79Z"/>
    <path d="M3633.5,3879l-.4-23.41-2.95.4a607,607,0,0,1,10.51,92.64c.07,1.92,3,1.94,3,0a447.6,447.6,0,0,1,10.48-107.32c2.92-13.13,7.23-30.69,22.2-34.64,14.54-3.83,28.93,8.29,33.1,21.49,2.95,9.31,2.37,19.34.26,28.76a90.6,90.6,0,0,1-3.61,12.29,18.7,18.7,0,0,1-3.38,6.27c-.83.89-2.27,2.29-3.53,2.54-2.46.49-7.33-2.16-5-5.49,1.11-1.58-1.49-3.08-2.59-1.51-3.24,4.59,1.76,10.42,6.85,10.15,7.78-.42,10.59-10.8,12.37-16.74,5.21-17.41,6.34-39.06-8.13-52.47-11.24-10.42-28.65-12.58-39.48-.41-5.46,6.13-8.3,14.23-10.34,22-2.94,11.25-5,22.79-6.84,34.26a454,454,0,0,0-5.38,80.77h3a612.47,612.47,0,0,0-10.62-93.44c-.32-1.67-3-1.27-2.94.4l.4,23.41c0,1.93,3,1.93,3,0Z"/>
    <path d="M3777.92,3830.16c13.67-19.28,40.36-36.83,37.69-63.62-1.91-19.25-22.84-32.41-39-18.68-8.42,7.17-11.39,18.23-12.29,28.85a117.16,117.16,0,0,0,3.31,38.35,124.48,124.48,0,0,0,15.42,35.57c7.44,11.9,14.83,23.25,15.24,37.76a50.21,50.21,0,0,1-16.47,38.72,50.74,50.74,0,0,1-18.3,10.6,28.5,28.5,0,0,1-9.86,1.78c-2.49-.13-5.36-.82-6.74-3.18s-.89-5.91,2-6.72a1.5,1.5,0,0,0-.8-2.89c-7.51,2.06-5.51,12.11.46,14.74,8.63,3.81,20.72-2,28-6.63a53.65,53.65,0,0,0,22.85-58.93c-3.46-12.73-12.12-23-18.33-34.38a117.25,117.25,0,0,1-13.2-40.77c-1.76-13.51-2.42-29.91,4.11-42.33,6.44-12.27,21.78-18.41,32.71-7.85,12,11.61,8.44,29,.53,41.83-8.29,13.4-20.91,23.45-30,36.27-1.12,1.57,1.48,3.07,2.59,1.51Z"/>
    <path d="M3842.49,3759.08l1.83-21.88h-3L3833.38,3875c-.1,1.8,2.4,1.9,2.95.4l22.05-59.49c3.38-9.1,6.1-19.43,12.33-27.09,5.67-7,16.68-11.44,24.29-4.69,1.44,1.27,3.57-.84,2.12-2.12-5.74-5.1-13.68-5.2-20.42-1.93-8.38,4.08-12.79,13-16.06,21.24-9.58,24.21-18.15,48.87-27.2,73.29l2.94.39,7.94-137.84c.11-1.94-2.84-1.9-3,0l-1.83,21.88c-.16,1.93,2.84,1.91,3,0Z"/>
    <path d="M3866.82,3815.82l-4,4c-1.36,1.37.76,3.5,2.12,2.13l4-4a1.5,1.5,0,0,0-2.12-2.12Z"/>
    <path d="M3851,3830.52c-5.89,6-1,15.8,6.3,17.86,5.83,1.64,11.85-.4,17.13-2.87a127.6,127.6,0,0,0,18.69-11c23.1-16,41.53-37.52,59.61-58.77,1.24-1.46-.87-3.59-2.13-2.12-14.09,16.57-28.3,33.22-44.88,47.38a159.6,159.6,0,0,1-26.79,18.78c-5.78,3.17-13.13,7.44-20,5.89-5.34-1.2-10.48-8.29-5.81-13.08,1.35-1.38-.77-3.5-2.12-2.12Z"/>
    <path d="M3930.34,3780.74c-45.8-49.85-116.91-68-182.71-62.36-79.15,6.76-151.53,45-218.83,84.56q-62.67,36.82-122.37,78.37a1.51,1.51,0,0,0,1.16,2.74q152.89-37.58,302.63-86.73,148.7-48.86,293.38-108.9,81.17-33.68,160.84-70.81c1.75-.82.22-3.4-1.52-2.59q-142.55,66.41-289.87,121.81-146.51,55.07-296.9,98.89-84.2,24.53-169.36,45.44l1.15,2.74q51.38-35.71,105-68c34.19-20.59,68.91-40.58,105.21-57.24,66.51-30.54,140.82-49,213.44-31,36.66,9.08,70.93,27.25,96.63,55.22,1.31,1.42,3.43-.7,2.12-2.12Z"/>
    -->
</svg>